# xmcd
#
# Track frame offsets:
#	182
#	12037
#	21887
#	34202
#	48897
#	61337
#	75037
#	88437
#	98635
#	107805
#	118242
#	129072
#
# Disc length: 1895 seconds
#
# Revision: 5
# Processed by: cddbd v1.5.2PL0 Copyright (c) Steve Scherf et al.
# Submitted via: audiograbber 1.83.01
#
DISCID=8907650c
DTITLE=Various Artist - Country and Western Club Vol.5
DYEAR=1990
DGENRE=Country
TTITLE0=Tennessee Ernie Ford - Sixteen Tons
TTITLE1=Hank Locklin - Please Help Me I´m Falling
TTITLE2=Patsy Cline - A Poor Man´s Roses
TTITLE3=Johnny Horton - Sink The Bismarck
TTITLE4=Conway Twitty - Danny Boy
TTITLE5=George Jones - A Good Year For The Roses
TTITLE6=Johnny Cash - Don´t Take Your Guns To Town
TTITLE7=Joan Weber - Let Me Go Lover
TTITLE8=Frankie Laine - Rawhide
TTITLE9=Don Gibson - Just One Time
TTITLE10=Jim Reeves - He´ll Have To Go
TTITLE11=Hank Williams - Hey, Good Lookin´
EXTD=ID3G: 2
EXTT0=
EXTT1=
EXTT2=
EXTT3=
EXTT4=
EXTT5=
EXTT6=
EXTT7=
EXTT8=
EXTT9=
EXTT10=
EXTT11=
PLAYORDER=
